<?xml version="1.0" encoding="utf-8"?>
<!-- Generator: Adobe Illustrator 16.0.0, SVG Export Plug-In . SVG Version: 6.00 Build 0)  -->
<!DOCTYPE svg PUBLIC "-//W3C//DTD SVG 1.1//EN" "http://www.w3.org/Graphics/SVG/1.1/DTD/svg11.dtd">
<svg version="1.1" id="Layer_1" xmlns="http://www.w3.org/2000/svg" xmlns:xlink="http://www.w3.org/1999/xlink" x="0px" y="0px"
	 width="94.943px" height="94.164px" viewBox="0 0 94.943 94.164" enable-background="new 0 0 94.943 94.164" xml:space="preserve">
<g>
	<g>
		<path fill="#826550" d="M90.284,28.39c-2.103-4.839-4.989-9.26-8.509-13.097c-0.646,1.26-1.308,2.519-1.976,3.778
			c2.577,3.008,4.745,6.373,6.423,10.013C87.562,28.843,88.917,28.618,90.284,28.39z"/>
	</g>
	<g>
		<path fill="#826550" d="M90.009,43.564c0.095,1.161,0.155,2.332,0.155,3.518c0,23.793-19.289,43.082-43.082,43.082
			c-0.786,0-1.565-0.023-2.342-0.066c0.134,0.57,0.229,1.178,0.219,1.842c-0.011,0.756-0.158,1.476-0.403,2.154
			c0.837,0.045,1.679,0.07,2.526,0.07c25.961,0,47.082-21.121,47.082-47.082c0-2.089-0.15-4.142-0.416-6.159
			C92.56,41.876,91.311,42.753,90.009,43.564z"/>
	</g>
	<g>
		<path fill="#826550" d="M4,47.082C4,23.288,23.288,4,47.082,4c7.861,0,15.225,2.116,21.568,5.793
			c1.084-0.859,2.211-1.736,3.361-2.624C64.777,2.634,56.233,0,47.082,0C21.121,0,0,21.121,0,47.082
			c0,19.807,12.3,36.783,29.657,43.725c-0.4-1.498-0.562-3.066-0.569-4.582C14.283,79.407,4,64.45,4,47.082z"/>
	</g>
	<g>
		<path fill="#826550" d="M38.77,84.906c7.737-2.721,16.312-9.662,14.539-19.826c-0.897-5.145-4.48-5-7.27-9.252
			C60.477,43.831,70.252,27.172,79.083,9.567c-0.661,0-1.32,0-1.982,0c-7.446,5.661-21.91,16.983-28.417,26.435
			c-2.604,3.78-4.594,9.313-7.271,13.878c-4.542,7.745-15.125,21.229-6.608,31.062c-1.38,4.619-1.204,12.389,3.965,12.557
			C42.039,91.771,37.385,88.895,38.77,84.906z M47.082,46.081c1.427,0,2.584,1.157,2.584,2.583c0,1.428-1.157,2.584-2.584,2.584
			s-2.583-1.156-2.583-2.584C44.499,47.238,45.655,46.081,47.082,46.081z M36.787,74.994c-1.856-9.003,7.01-16.95,11.896-9.252
			C48.943,73.16,42.502,81.51,36.787,74.994z"/>
	</g>
	<g>
		<path fill="#826550" d="M55.953,51.203C69.916,46,86.53,43.45,94.943,32.698c-9.414,1.379-18.119,3.469-27.756,4.626
			C65.053,43.56,60.156,47.035,55.953,51.203z"/>
	</g>
	<g>
		<path fill="#826550" d="M12.335,39.968c-4.223,12.248,8.425,15.99,21.81,13.878c3.784-4.813,5.85-9.964,1.982-15.861
			C31.233,30.524,15.216,31.612,12.335,39.968z M17.622,47.237c-5.123-10.84,12.891-11.066,14.539-5.287
			C34.339,49.582,23.063,49.982,17.622,47.237z"/>
	</g>
</g>
</svg>
