<?xml version="1.0" encoding="utf-8"?>
<!-- Generator: Adobe Illustrator 16.0.0, SVG Export Plug-In . SVG Version: 6.00 Build 0)  -->
<!DOCTYPE svg PUBLIC "-//W3C//DTD SVG 1.1//EN" "http://www.w3.org/Graphics/SVG/1.1/DTD/svg11.dtd">
<svg version="1.1" id="Layer_1" xmlns="http://www.w3.org/2000/svg" xmlns:xlink="http://www.w3.org/1999/xlink" x="0px" y="0px"
	 width="51.479px" height="49.479px" viewBox="0 0 51.479 49.479" enable-background="new 0 0 51.479 49.479" xml:space="preserve">
<path fill="#826550" d="M50.878,1.661c-0.08,0-0.16,0-0.24,0c-2.307,7.693-2.926,17.073-9.358,20.64c-1.189-3.354-4.109-4.893-7.439-6.359
	c-2.117-0.934-4.547-2.558-6.602-2.641c-0.496-0.02-1.049-0.032-1.5,0.315c-0.451-0.349-1.003-0.335-1.5-0.315
	c-2.054,0.083-4.484,1.707-6.602,2.641c-3.33,1.468-6.25,3.005-7.438,6.359c-6.435-3.565-7.054-12.946-9.36-20.64
	c-0.08,0-0.16,0-0.24,0c-0.315,0.683-0.398,1.6-0.599,2.4c0,1.92,0.543,21.462,1.92,28.439c1.24,6.289,6.077,10.83,10.8,13.801
	c3.29,2.068,8.507,4.838,13.021,4.838c4.513,0,9.729-2.77,13.02-4.838c4.723-2.97,9.561-7.512,10.8-13.801
	c1.377-6.978,1.92-26.52,1.92-28.439C51.278,3.26,51.195,2.344,50.878,1.661z M36.949,29.717c-0.245,1.553-1.663,3.386-3.359,3.48
	c-2.979,0.167-4.507-4.415-7.86-4.38c-3.354-0.035-4.882,4.547-7.86,4.38c-1.696-0.096-3.115-1.929-3.359-3.48
	c-0.308-1.941,0.611-4.605,1.68-5.64c1.104-1.067,2.822-0.93,4.68-1.2c2.037-0.295,3.798-0.881,4.859-1.947c0-0.038,0-0.038,0,0
	c1.063,1.065,2.823,1.651,4.86,1.947c1.857,0.271,3.576,0.133,4.68,1.2C36.339,25.11,37.257,27.774,36.949,29.717z"/>
</svg>
