<?xml version="1.0" encoding="utf-8"?>
<!-- Generator: Adobe Illustrator 16.0.0, SVG Export Plug-In . SVG Version: 6.00 Build 0)  -->
<!DOCTYPE svg PUBLIC "-//W3C//DTD SVG 1.1//EN" "http://www.w3.org/Graphics/SVG/1.1/DTD/svg11.dtd">
<svg version="1.1" id="Layer_1" xmlns="http://www.w3.org/2000/svg" xmlns:xlink="http://www.w3.org/1999/xlink" x="0px" y="0px"
	 width="57px" height="97.682px" viewBox="0 0 57 97.682" enable-background="new 0 0 57 97.682" xml:space="preserve">
<path fill="#826550" d="M51.121,15.24C50.725,9.787,50.51,4.387,48.6,0c-0.764,0-1.529,7.313-2.279,10.92
	c-1.477,7.14-3.715,8.283-4.439,8.28c-0.859-3.857-4.385-4.241-7.801-5.88c-1.207-0.579-2.311-1.052-3.602-1.199
	c-0.666-0.077-1.287,0.102-1.979,0.116c-0.69-0.016-1.313-0.193-1.979-0.116c-1.291,0.148-2.395,0.62-3.602,1.199
	c-3.416,1.639-6.941,2.021-7.801,5.88c-0.725,0.004-2.963-1.141-4.439-8.28C9.928,7.314,9.164,0,8.399,0
	c-1.91,4.389-2.125,9.787-2.52,15.24C5,38.778,0,51.528,0,62.399C0,88.466,11.708,97.68,28.5,97.68c16.792,0,28.5-9.215,28.5-35.281
	C57,51.528,52,38.778,51.121,15.24z M35.774,24.959c-2.793,1.174-5.354-0.709-5.879-0.719c-0.019-0.001-0.043,0.006-0.061,0.006
	s-0.042-0.007-0.061-0.006c-0.526,0.01-3.086,1.894-5.879,0.719c-0.785-3.583,2.396-4.042,5.939-3.904
	C33.38,20.917,36.56,21.377,35.774,24.959z"/>
</svg>
