<?xml version="1.0" encoding="utf-8"?>
<!-- Generator: Adobe Illustrator 16.0.0, SVG Export Plug-In . SVG Version: 6.00 Build 0)  -->
<!DOCTYPE svg PUBLIC "-//W3C//DTD SVG 1.1//EN" "http://www.w3.org/Graphics/SVG/1.1/DTD/svg11.dtd">
<svg version="1.1" id="Layer_1" xmlns="http://www.w3.org/2000/svg" xmlns:xlink="http://www.w3.org/1999/xlink" x="0px" y="0px"
	 width="62.398px" height="78.489px" viewBox="0 0 62.398 78.489" enable-background="new 0 0 62.398 78.489" xml:space="preserve">
<path fill="#826550" d="M62.399,42c0-5.213-2.367-7.775-3.6-9.961c-0.904-1.605-3.977-10.752-4.199-17.64C54.533,9.495,52.906,1.954,51.719,0
	c-0.863,0-1.521,7.781-2.279,11.639c-1.428,7.043-3.766,8.935-4.439,9c-0.758-2.809-4.113-7.363-13.676-7.725
	c-0.048-0.017-0.083-0.029-0.125-0.043c-0.043,0.014-0.078,0.026-0.126,0.043c-9.562,0.36-12.918,4.916-13.675,7.725
	c-0.674-0.065-3.011-1.957-4.438-9C12.2,7.782,11.544,0,10.679,0C9.491,1.954,7.866,9.495,7.8,14.4
	c-0.226,6.888-3.294,16.032-4.2,17.64C2.368,34.225,0.001,36.788,0.001,42c0,3.744,5.199,7.203,5.639,11.398
	c0.125,1.223-0.031,2.35,0.12,3.361c2.003,17.483,17.867,21.729,25.438,21.729l0,0l0,0c7.574,0,23.439-4.244,25.441-21.729
	c0.15-1.012-0.006-2.139,0.119-3.361C57.198,49.204,62.399,45.747,62.399,42z M33.239,26.76c-0.688-0.135-3.394-0.135-4.081,0
	c-1.731,0.34-5.761,0.988-5.761-1.08c0-1.068,6.72-2.295,7.801-2.295c1.08,0,7.8,1.228,7.802,2.295
	C39,27.749,34.971,27.1,33.239,26.76z"/>
</svg>
